<svg width="532" height="246" viewBox="0 0 532 246" fill="none" xmlns="http://www.w3.org/2000/svg">
<path d="M171 144C170.744 144 170.488 143.902 170.293 143.707C169.902 143.316 169.902 142.684 170.293 142.293L182.293 130.293C182.684 129.902 183.316 129.902 183.707 130.293C184.098 130.684 184.098 131.316 183.707 131.707L171.707 143.707C171.512 143.902 171.256 144 171 144Z" fill="#333B41"/>
<path d="M91.7695 140.754H98.1328V147.609H91.7695V159H83.2266V147.609H61.1133L60.8672 142.406L82.9453 107.812H91.7695V140.754ZM69.832 140.754H83.2266V119.379L82.5938 120.504L69.832 140.754Z" fill="black"/>
<path d="M183 144C182.744 144 182.488 143.902 182.293 143.707L170.293 131.707C169.902 131.316 169.902 130.684 170.293 130.293C170.684 129.902 171.316 129.902 171.707 130.293L183.707 142.293C184.098 142.684 184.098 143.316 183.707 143.707C183.512 143.902 183.256 144 183 144Z" fill="#333B41"/>
<path d="M2.82812 185.547V190H1.32812V178.625H5.52344C6.76823 178.625 7.74219 178.943 8.44531 179.578C9.15365 180.214 9.50781 181.055 9.50781 182.102C9.50781 183.206 9.16146 184.057 8.46875 184.656C7.78125 185.25 6.79427 185.547 5.50781 185.547H2.82812ZM2.82812 184.32H5.52344C6.32552 184.32 6.9401 184.133 7.36719 183.758C7.79427 183.378 8.00781 182.831 8.00781 182.117C8.00781 181.44 7.79427 180.898 7.36719 180.492C6.9401 180.086 6.35417 179.875 5.60938 179.859H2.82812V184.32ZM16.3203 190C16.237 189.833 16.1693 189.536 16.1172 189.109C15.4453 189.807 14.6432 190.156 13.7109 190.156C12.8776 190.156 12.1927 189.922 11.6562 189.453C11.125 188.979 10.8594 188.38 10.8594 187.656C10.8594 186.776 11.1927 186.094 11.8594 185.609C12.5312 185.12 13.474 184.875 14.6875 184.875H16.0938V184.211C16.0938 183.706 15.9427 183.305 15.6406 183.008C15.3385 182.706 14.8932 182.555 14.3047 182.555C13.7891 182.555 13.3568 182.685 13.0078 182.945C12.6589 183.206 12.4844 183.521 12.4844 183.891H11.0312C11.0312 183.469 11.1797 183.062 11.4766 182.672C11.7786 182.276 12.1849 181.964 12.6953 181.734C13.2109 181.505 13.776 181.391 14.3906 181.391C15.3646 181.391 16.1276 181.635 16.6797 182.125C17.2318 182.609 17.5182 183.279 17.5391 184.133V188.023C17.5391 188.799 17.638 189.417 17.8359 189.875V190H16.3203ZM13.9219 188.898C14.375 188.898 14.8047 188.781 15.2109 188.547C15.6172 188.312 15.9115 188.008 16.0938 187.633V185.898H14.9609C13.1901 185.898 12.3047 186.417 12.3047 187.453C12.3047 187.906 12.4557 188.26 12.7578 188.516C13.0599 188.771 13.4479 188.898 13.9219 188.898ZM21.1719 181.547L21.2188 182.609C21.8646 181.797 22.7083 181.391 23.75 181.391C25.5365 181.391 26.4375 182.398 26.4531 184.414V190H25.0078V184.406C25.0026 183.797 24.862 183.346 24.5859 183.055C24.3151 182.763 23.8906 182.617 23.3125 182.617C22.8438 182.617 22.4323 182.742 22.0781 182.992C21.724 183.242 21.4479 183.57 21.25 183.977V190H19.8047V181.547H21.1719ZM28.2812 185.703C28.2812 184.406 28.5885 183.365 29.2031 182.578C29.8177 181.786 30.6224 181.391 31.6172 181.391C32.6068 181.391 33.3906 181.729 33.9688 182.406V178H35.4141V190H34.0859L34.0156 189.094C33.4375 189.802 32.6328 190.156 31.6016 190.156C30.6224 190.156 29.8229 189.755 29.2031 188.953C28.5885 188.151 28.2812 187.104 28.2812 185.812V185.703ZM29.7266 185.867C29.7266 186.826 29.9245 187.576 30.3203 188.117C30.7161 188.659 31.263 188.93 31.9609 188.93C32.8776 188.93 33.5469 188.518 33.9688 187.695V183.812C33.5365 183.016 32.8724 182.617 31.9766 182.617C31.2682 182.617 30.7161 182.891 30.3203 183.438C29.9245 183.984 29.7266 184.794 29.7266 185.867ZM42.8828 190C42.7995 189.833 42.7318 189.536 42.6797 189.109C42.0078 189.807 41.2057 190.156 40.2734 190.156C39.4401 190.156 38.7552 189.922 38.2188 189.453C37.6875 188.979 37.4219 188.38 37.4219 187.656C37.4219 186.776 37.7552 186.094 38.4219 185.609C39.0938 185.12 40.0365 184.875 41.25 184.875H42.6562V184.211C42.6562 183.706 42.5052 183.305 42.2031 183.008C41.901 182.706 41.4557 182.555 40.8672 182.555C40.3516 182.555 39.9193 182.685 39.5703 182.945C39.2214 183.206 39.0469 183.521 39.0469 183.891H37.5938C37.5938 183.469 37.7422 183.062 38.0391 182.672C38.3411 182.276 38.7474 181.964 39.2578 181.734C39.7734 181.505 40.3385 181.391 40.9531 181.391C41.9271 181.391 42.6901 181.635 43.2422 182.125C43.7943 182.609 44.0807 183.279 44.1016 184.133V188.023C44.1016 188.799 44.2005 189.417 44.3984 189.875V190H42.8828ZM40.4844 188.898C40.9375 188.898 41.3672 188.781 41.7734 188.547C42.1797 188.312 42.474 188.008 42.6562 187.633V185.898H41.5234C39.7526 185.898 38.8672 186.417 38.8672 187.453C38.8672 187.906 39.0182 188.26 39.3203 188.516C39.6224 188.771 40.0104 188.898 40.4844 188.898ZM49.9844 185.703C49.9844 184.406 50.2917 183.365 50.9062 182.578C51.5208 181.786 52.3255 181.391 53.3203 181.391C54.3099 181.391 55.0938 181.729 55.6719 182.406V178H57.1172V190H55.7891L55.7188 189.094C55.1406 189.802 54.3359 190.156 53.3047 190.156C52.3255 190.156 51.526 189.755 50.9062 188.953C50.2917 188.151 49.9844 187.104 49.9844 185.812V185.703ZM51.4297 185.867C51.4297 186.826 51.6276 187.576 52.0234 188.117C52.4193 188.659 52.9661 188.93 53.6641 188.93C54.5807 188.93 55.25 188.518 55.6719 187.695V183.812C55.2396 183.016 54.5755 182.617 53.6797 182.617C52.9714 182.617 52.4193 182.891 52.0234 183.438C51.6276 183.984 51.4297 184.794 51.4297 185.867ZM60.9375 190H59.4922V181.547H60.9375V190ZM59.375 179.305C59.375 179.07 59.4453 178.872 59.5859 178.711C59.7318 178.549 59.9453 178.469 60.2266 178.469C60.5078 178.469 60.7214 178.549 60.8672 178.711C61.013 178.872 61.0859 179.07 61.0859 179.305C61.0859 179.539 61.013 179.734 60.8672 179.891C60.7214 180.047 60.5078 180.125 60.2266 180.125C59.9453 180.125 59.7318 180.047 59.5859 179.891C59.4453 179.734 59.375 179.539 59.375 179.305ZM66.7656 190.156C65.6198 190.156 64.6875 189.781 63.9688 189.031C63.25 188.276 62.8906 187.268 62.8906 186.008V185.742C62.8906 184.904 63.0495 184.156 63.3672 183.5C63.6901 182.839 64.138 182.323 64.7109 181.953C65.2891 181.578 65.9141 181.391 66.5859 181.391C67.6849 181.391 68.5391 181.753 69.1484 182.477C69.7578 183.201 70.0625 184.237 70.0625 185.586V186.188H64.3359C64.3568 187.021 64.599 187.695 65.0625 188.211C65.5312 188.721 66.125 188.977 66.8438 188.977C67.3542 188.977 67.7865 188.872 68.1406 188.664C68.4948 188.456 68.8047 188.18 69.0703 187.836L69.9531 188.523C69.2448 189.612 68.1823 190.156 66.7656 190.156ZM66.5859 182.578C66.0026 182.578 65.513 182.792 65.1172 183.219C64.7214 183.641 64.4766 184.234 64.3828 185H68.6172V184.891C68.5755 184.156 68.3776 183.589 68.0234 183.188C67.6693 182.781 67.1901 182.578 66.5859 182.578ZM73.7031 179.5V181.547H75.2812V182.664H73.7031V187.906C73.7031 188.245 73.7734 188.5 73.9141 188.672C74.0547 188.839 74.2943 188.922 74.6328 188.922C74.7995 188.922 75.0286 188.891 75.3203 188.828V190C74.9401 190.104 74.5703 190.156 74.2109 190.156C73.5651 190.156 73.0781 189.961 72.75 189.57C72.4219 189.18 72.2578 188.625 72.2578 187.906V182.664H70.7188V181.547H72.2578V179.5H73.7031ZM81.6562 190V182.664H80.3203V181.547H81.6562V180.68C81.6562 179.773 81.8984 179.073 82.3828 178.578C82.8672 178.083 83.5521 177.836 84.4375 177.836C84.7708 177.836 85.1016 177.88 85.4297 177.969L85.3516 179.141C85.1068 179.094 84.8464 179.07 84.5703 179.07C84.1016 179.07 83.7396 179.208 83.4844 179.484C83.2292 179.755 83.1016 180.146 83.1016 180.656V181.547H84.9062V182.664H83.1016V190H81.6562ZM86.125 185.695C86.125 184.867 86.2865 184.122 86.6094 183.461C86.9375 182.799 87.3906 182.289 87.9688 181.93C88.5521 181.57 89.2161 181.391 89.9609 181.391C91.112 181.391 92.0417 181.789 92.75 182.586C93.4635 183.383 93.8203 184.443 93.8203 185.766V185.867C93.8203 186.69 93.6615 187.43 93.3438 188.086C93.0312 188.737 92.5807 189.245 91.9922 189.609C91.4089 189.974 90.737 190.156 89.9766 190.156C88.8307 190.156 87.901 189.758 87.1875 188.961C86.4792 188.164 86.125 187.109 86.125 185.797V185.695ZM87.5781 185.867C87.5781 186.805 87.7943 187.557 88.2266 188.125C88.6641 188.693 89.2474 188.977 89.9766 188.977C90.7109 188.977 91.2943 188.69 91.7266 188.117C92.1589 187.539 92.375 186.732 92.375 185.695C92.375 184.768 92.1536 184.018 91.7109 183.445C91.2734 182.867 90.6901 182.578 89.9609 182.578C89.2474 182.578 88.6719 182.862 88.2344 183.43C87.7969 183.997 87.5781 184.81 87.5781 185.867ZM99.7188 182.844C99.5 182.807 99.263 182.789 99.0078 182.789C98.0599 182.789 97.4167 183.193 97.0781 184V190H95.6328V181.547H97.0391L97.0625 182.523C97.5365 181.768 98.2083 181.391 99.0781 181.391C99.3594 181.391 99.5729 181.427 99.7188 181.5V182.844ZM106.984 179.5V181.547H108.562V182.664H106.984V187.906C106.984 188.245 107.055 188.5 107.195 188.672C107.336 188.839 107.576 188.922 107.914 188.922C108.081 188.922 108.31 188.891 108.602 188.828V190C108.221 190.104 107.852 190.156 107.492 190.156C106.846 190.156 106.359 189.961 106.031 189.57C105.703 189.18 105.539 188.625 105.539 187.906V182.664H104V181.547H105.539V179.5H106.984ZM111.703 182.57C112.344 181.784 113.177 181.391 114.203 181.391C115.99 181.391 116.891 182.398 116.906 184.414V190H115.461V184.406C115.456 183.797 115.315 183.346 115.039 183.055C114.768 182.763 114.344 182.617 113.766 182.617C113.297 182.617 112.885 182.742 112.531 182.992C112.177 183.242 111.901 183.57 111.703 183.977V190H110.258V178H111.703V182.57ZM122.578 190.156C121.432 190.156 120.5 189.781 119.781 189.031C119.062 188.276 118.703 187.268 118.703 186.008V185.742C118.703 184.904 118.862 184.156 119.18 183.5C119.503 182.839 119.951 182.323 120.523 181.953C121.102 181.578 121.727 181.391 122.398 181.391C123.497 181.391 124.352 181.753 124.961 182.477C125.57 183.201 125.875 184.237 125.875 185.586V186.188H120.148C120.169 187.021 120.411 187.695 120.875 188.211C121.344 188.721 121.938 188.977 122.656 188.977C123.167 188.977 123.599 188.872 123.953 188.664C124.307 188.456 124.617 188.18 124.883 187.836L125.766 188.523C125.057 189.612 123.995 190.156 122.578 190.156ZM122.398 182.578C121.815 182.578 121.326 182.792 120.93 183.219C120.534 183.641 120.289 184.234 120.195 185H124.43V184.891C124.388 184.156 124.19 183.589 123.836 183.188C123.482 182.781 123.003 182.578 122.398 182.578ZM131.172 185.703C131.172 184.406 131.479 183.365 132.094 182.578C132.708 181.786 133.513 181.391 134.508 181.391C135.497 181.391 136.281 181.729 136.859 182.406V178H138.305V190H136.977L136.906 189.094C136.328 189.802 135.523 190.156 134.492 190.156C133.513 190.156 132.714 189.755 132.094 188.953C131.479 188.151 131.172 187.104 131.172 185.812V185.703ZM132.617 185.867C132.617 186.826 132.815 187.576 133.211 188.117C133.607 188.659 134.154 188.93 134.852 188.93C135.768 188.93 136.438 188.518 136.859 187.695V183.812C136.427 183.016 135.763 182.617 134.867 182.617C134.159 182.617 133.607 182.891 133.211 183.438C132.815 183.984 132.617 184.794 132.617 185.867ZM145.773 190C145.69 189.833 145.622 189.536 145.57 189.109C144.898 189.807 144.096 190.156 143.164 190.156C142.331 190.156 141.646 189.922 141.109 189.453C140.578 188.979 140.312 188.38 140.312 187.656C140.312 186.776 140.646 186.094 141.312 185.609C141.984 185.12 142.927 184.875 144.141 184.875H145.547V184.211C145.547 183.706 145.396 183.305 145.094 183.008C144.792 182.706 144.346 182.555 143.758 182.555C143.242 182.555 142.81 182.685 142.461 182.945C142.112 183.206 141.938 183.521 141.938 183.891H140.484C140.484 183.469 140.633 183.062 140.93 182.672C141.232 182.276 141.638 181.964 142.148 181.734C142.664 181.505 143.229 181.391 143.844 181.391C144.818 181.391 145.581 181.635 146.133 182.125C146.685 182.609 146.971 183.279 146.992 184.133V188.023C146.992 188.799 147.091 189.417 147.289 189.875V190H145.773ZM143.375 188.898C143.828 188.898 144.258 188.781 144.664 188.547C145.07 188.312 145.365 188.008 145.547 187.633V185.898H144.414C142.643 185.898 141.758 186.417 141.758 187.453C141.758 187.906 141.909 188.26 142.211 188.516C142.513 188.771 142.901 188.898 143.375 188.898ZM151.898 187.883L153.867 181.547H155.414L152.016 191.305C151.49 192.711 150.654 193.414 149.508 193.414L149.234 193.391L148.695 193.289V192.117L149.086 192.148C149.576 192.148 149.956 192.049 150.227 191.852C150.503 191.654 150.729 191.292 150.906 190.766L151.227 189.906L148.211 181.547H149.789L151.898 187.883ZM155.898 189.242C155.898 188.992 155.971 188.784 156.117 188.617C156.268 188.451 156.492 188.367 156.789 188.367C157.086 188.367 157.31 188.451 157.461 188.617C157.617 188.784 157.695 188.992 157.695 189.242C157.695 189.482 157.617 189.682 157.461 189.844C157.31 190.005 157.086 190.086 156.789 190.086C156.492 190.086 156.268 190.005 156.117 189.844C155.971 189.682 155.898 189.482 155.898 189.242Z" fill="#333B41"/>
<g clip-path="url(#clip0_46585_823)">
<path d="M496.818 196.012C507.667 175.031 516.492 149.302 516.492 121.882C516.492 108.109 512.189 92.4516 504.983 80.0005C498.681 69.113 486.996 55.0466 467.099 49.8605C441.918 43.298 416.405 49.4179 395.905 54.336C388.497 56.1132 381.499 57.7918 375.505 58.6219C362.063 60.4819 347.861 60.2094 335.653 59.7377H335.645C333.735 59.6638 331.869 59.5854 330.067 59.5095C322.354 59.1839 304.59 58.8716 304.59 58.8716C303.621 54.7508 301.411 51.3747 298.653 49.8162C297.484 49.167 296.208 48.8379 294.919 48.8531C293.629 48.8683 292.359 49.2274 291.202 49.9041C287.407 51.9519 285.588 56.502 286.448 61.6388C280.369 64.7595 274.429 70.9711 270.827 75.8557C267.734 80.0492 265.112 86.6705 262.574 93.0737C259.991 99.5951 257.32 106.338 254.647 109.061C253.992 109.722 253.414 110.483 252.926 111.323C252.917 111.323 252.909 111.318 252.9 111.316C252.341 111.182 251.764 111.188 251.208 111.335C250.651 111.482 250.126 111.766 249.667 112.168C249.208 112.571 248.824 113.084 248.541 113.673C248.257 114.263 248.081 114.917 248.022 115.592C247.963 116.268 248.023 116.951 248.199 117.597C248.375 118.244 248.662 118.839 249.042 119.346C249.422 119.852 249.886 120.258 250.406 120.538C250.926 120.818 251.488 120.966 252.059 120.971C252.541 122.763 253.193 124.483 254.002 126.1C259.381 137.133 267.89 143.992 275.397 150.042C279.536 153.378 283.444 156.529 286.472 160.048C288.744 162.78 290.72 165.84 292.354 169.157C292.372 169.199 292.396 169.235 292.416 169.276C295.489 175.404 297.927 182.881 298.383 190.022C298.958 199.044 300.32 223.404 300.749 231.098C299.269 231.659 297.882 232.518 296.646 233.637C295.727 234.465 295.052 235.62 294.72 236.935C294.388 238.251 294.415 239.658 294.798 240.953C295.161 242.275 295.868 243.425 296.817 244.237C297.765 245.049 298.905 245.481 300.073 245.47H325.215C326.025 245.471 326.825 245.26 327.56 244.853C328.294 244.446 328.945 243.852 329.465 243.113C335.026 235.234 348.896 214.929 357.674 196.507C391.654 196.467 414.86 194.998 428.397 192.018C430.413 207.207 433.076 224.514 434.05 230.756C433.209 231.225 432.415 231.801 431.68 232.475C430.674 233.4 429.936 234.676 429.57 236.124C429.203 237.573 429.226 239.123 429.636 240.555C430.045 241.988 430.821 243.232 431.853 244.113C432.886 244.994 434.124 245.468 435.394 245.468H458.961C460.355 245.467 461.706 244.896 462.79 243.852C470.562 236.34 484.783 219.18 496.642 196.355C496.707 196.245 496.766 196.131 496.818 196.012V196.012ZM330.738 123.819C323.137 142.801 309.756 158.156 295.502 164.419C293.866 161.368 291.957 158.537 289.809 155.976C286.475 152.101 282.394 148.812 278.074 145.33C270.646 139.342 262.963 133.15 258.132 123.242C255.192 117.211 256.29 114.875 257.751 113.387C261.203 109.871 263.968 102.892 266.895 95.5027C269.29 89.4555 271.767 83.2028 274.416 79.6124C277.622 75.2646 283.323 69.2521 288.84 66.6157C289.382 66.3558 289.869 65.9569 290.267 65.4474C293.283 70.6999 300.466 69.9254 302.269 65.1426C302.395 64.799 302.488 64.4398 302.547 64.0717C310.139 65.2482 322.237 64.8714 329.899 65.1964C331.198 65.2514 332.537 65.307 333.893 65.3614C339.481 84.0582 338.379 104.741 330.738 123.819ZM477.255 175.936C472.804 174.95 450.711 170.969 432.181 183.909C431.3 176.773 430.699 170.838 430.699 167.937C430.699 167.183 430.447 166.459 430 165.926C429.552 165.392 428.945 165.092 428.311 165.092C427.678 165.092 427.071 165.392 426.623 165.926C426.175 166.459 425.924 167.183 425.924 167.937C425.924 171.306 426.645 178.248 427.668 186.393C416.107 188.967 397.042 190.399 369.715 190.739C375.155 186.803 379.493 181.153 382.661 173.804C387.073 163.576 389.023 150.251 388.3 135.268C387.486 118.387 376.6 95.65 367.852 77.3825C365.826 73.1523 363.886 69.1004 362.27 65.5144C366.871 65.2899 371.497 64.9043 376.054 64.2733C382.245 63.4173 389.337 61.7153 396.845 59.911C416.907 55.0979 441.875 49.1075 466.076 55.4165C499.326 64.0856 511.716 100.786 511.716 121.882C511.716 146.163 504.475 169.109 495.132 188.388C492.389 183.5 486.673 178.023 477.255 175.936V175.936Z" fill="black"/>
<path d="M280.002 89.2392C270.392 84.8144 264.802 97.2411 270.918 104.539C274.263 108.527 277.442 117.769 284.709 117.003C296.254 115.788 295.191 96.2253 280.002 89.2392ZM275.648 101.263C275.078 101.263 274.521 101.059 274.048 100.676C273.574 100.294 273.204 99.7506 272.986 99.1148C272.768 98.479 272.711 97.7794 272.822 97.1045C272.934 96.4296 273.208 95.8096 273.611 95.323C274.014 94.8364 274.527 94.505 275.086 94.3708C275.645 94.2365 276.225 94.3055 276.751 94.5688C277.278 94.8321 277.728 95.2781 278.044 95.8503C278.361 96.4225 278.53 97.0952 278.53 97.7833C278.53 98.706 278.226 99.5909 277.686 100.243C277.145 100.896 276.413 101.262 275.648 101.263V101.263Z" fill="black"/>
<path d="M383.331 201.951C383.301 201.811 383.233 201.687 383.136 201.599C383.04 201.511 382.921 201.464 382.799 201.465C380.193 201.498 366.399 201.668 360.55 201.696C360.46 201.695 360.372 201.722 360.293 201.774C360.214 201.825 360.148 201.9 360.101 201.99C356.342 209.044 349.747 220.019 345.392 227.164C345.32 227.282 345.285 227.425 345.292 227.57C345.299 227.715 345.347 227.852 345.429 227.96L351.515 236.012L351.45 236.127C351.429 236.172 351.402 236.216 351.38 236.261C350.905 237.179 350.646 238.23 350.63 239.306C350.613 240.382 350.84 241.443 351.286 242.381C351.732 243.319 352.382 244.099 353.169 244.642C353.955 245.185 354.85 245.471 355.762 245.47H381.641C382.325 245.469 383.003 245.307 383.633 244.993C384.264 244.679 384.835 244.219 385.313 243.641C385.791 243.062 386.166 242.376 386.416 241.624C386.666 240.872 386.787 240.068 386.77 239.26C386.683 235.097 386.456 228.562 385.892 221.47C385.426 214.901 384.57 208.379 383.331 201.951Z" fill="black"/>
<path d="M510.923 178.544C510.888 178.422 510.824 178.316 510.738 178.239C510.652 178.163 510.549 178.12 510.443 178.116C510.336 178.113 510.231 178.148 510.142 178.218C510.053 178.288 509.983 178.39 509.942 178.509C509.238 180.589 508.447 182.625 507.574 184.608C500.27 201.22 491.413 216.754 481.177 230.901C481.09 231.02 481.043 231.174 481.045 231.334C481.047 231.493 481.099 231.645 481.19 231.76L482.959 234.026C482.439 234.773 482.003 235.6 481.662 236.487C481.295 237.466 481.139 238.541 481.207 239.614C481.275 240.686 481.565 241.72 482.051 242.62C482.483 243.476 483.086 244.185 483.804 244.684C484.522 245.182 485.331 245.452 486.158 245.47H513.024C513.688 245.469 514.345 245.308 514.956 244.995C515.567 244.683 516.121 244.225 516.584 243.648C517.048 243.072 517.411 242.39 517.654 241.64C517.897 240.891 518.014 240.09 517.999 239.285C517.733 226.33 516.499 197.618 510.923 178.544Z" fill="black"/>
</g>
<defs>
<clipPath id="clip0_46585_823">
<rect width="284" height="246" fill="white" transform="translate(248)"/>
</clipPath>
</defs>
</svg>
