<svg width="976" height="114" viewBox="0 0 976 114" fill="none" xmlns="http://www.w3.org/2000/svg">
<rect y="39" width="976" height="27" rx="2" fill="#404950"/>
<rect x="31" y="51" width="915" height="2" fill="#72828E"/>
<circle cx="31" cy="52" r="5" fill="#FFEE2E"/>
<circle cx="161" cy="52" r="5" fill="#FFEE2E"/>
<circle cx="291" cy="52" r="5" fill="#FFEE2E"/>
<circle cx="421" cy="52" r="5" fill="#FFEE2E"/>
<circle cx="551" cy="51" r="5" fill="#FFEE2E"/>
<circle cx="681" cy="53" r="5" fill="#FFEE2E"/>
<circle cx="811" cy="52" r="5" fill="#FFEE2E"/>
<circle cx="941" cy="52" r="5" fill="#FFEE2E"/>
<path fill-rule="evenodd" clip-rule="evenodd" d="M302.477 51.9999C302.477 58.3438 297.344 63.4769 291 63.4769C284.657 63.4769 279.523 58.3438 279.523 51.9999C279.523 45.6561 284.657 40.5229 291 40.5229C297.344 40.5229 302.477 45.6561 302.477 51.9999ZM291 42.3147C296.376 42.3147 300.734 46.6246 300.734 51.9999C300.734 57.3752 296.376 61.7336 291 61.7336C285.625 61.7336 281.315 57.3752 281.315 51.9999C281.315 46.6246 285.625 42.3147 291 42.3147Z" fill="#FE9013"/>
<path fill-rule="evenodd" clip-rule="evenodd" d="M291 32C302.041 32 311 40.9588 311 52C311 63.0412 302.041 72 291 72C279.959 72 271 63.0412 271 52C271 40.9588 279.959 32 291 32ZM291 33.7918C301.073 33.7918 309.257 41.9274 309.257 52C309.257 62.0726 301.073 70.2567 291 70.2567C280.927 70.2567 272.792 62.0726 272.792 52C272.792 41.9274 280.927 33.7918 291 33.7918Z" fill="#FE9013"/>
<path d="M268.078 93.2597C267.662 92.8701 267.247 92.5844 266.857 92.3766C266.468 92.1948 266.026 92.0909 265.532 92.0909C264.961 92.0909 264.545 92.2208 264.26 92.4545C263.974 92.6883 263.818 93.0779 263.818 93.5974C263.818 93.961 263.974 94.2987 264.286 94.5325C264.597 94.7922 264.961 95.026 265.429 95.2597C265.896 95.4935 266.39 95.7273 266.909 95.987C267.429 96.2468 267.922 96.5325 268.39 96.8961C268.857 97.2597 269.221 97.6753 269.532 98.1948C269.844 98.7143 270 99.3377 270 100.065C270 101.182 269.688 102.143 269.091 102.948C268.494 103.753 267.558 104.273 266.364 104.558V107H264.104V104.662C263.429 104.584 262.701 104.403 261.948 104.091C261.195 103.779 260.545 103.39 260 102.896L261.506 100.584C262.104 101.026 262.675 101.364 263.195 101.597C263.74 101.831 264.286 101.935 264.831 101.935C265.481 101.935 265.974 101.805 266.26 101.545C266.571 101.286 266.727 100.87 266.727 100.325C266.727 99.9091 266.571 99.5714 266.26 99.2857C265.948 99 265.584 98.7403 265.117 98.4805C264.649 98.2208 264.156 97.961 263.636 97.7013C263.117 97.4416 262.623 97.1299 262.156 96.7662C261.688 96.4026 261.325 95.987 261.013 95.4935C260.701 95 260.545 94.4286 260.545 93.7273C260.545 92.5844 260.857 91.6234 261.481 90.8701C262.104 90.1169 262.987 89.6234 264.078 89.4156V87H266.338V89.3636C267.091 89.4675 267.74 89.7013 268.312 90.039C268.883 90.3766 269.377 90.7922 269.844 91.2857L268.078 93.2597Z" fill="#FE9013"/>
<path d="M281.737 105H278.665V90.1592L274.133 91.708V89.1055L281.344 86.4521H281.737V105ZM300.209 97.2178C300.209 99.8753 299.71 101.881 298.711 103.235C297.721 104.581 296.21 105.254 294.179 105.254C292.181 105.254 290.675 104.598 289.659 103.286C288.652 101.966 288.136 100.015 288.11 97.4336V94.2344C288.11 91.5768 288.605 89.5837 289.596 88.2549C290.594 86.9261 292.114 86.2617 294.153 86.2617C296.176 86.2617 297.683 86.9092 298.673 88.2041C299.672 89.499 300.184 91.4372 300.209 94.0186V97.2178ZM297.124 93.7646C297.124 92.0296 296.887 90.7601 296.413 89.9561C295.939 89.1436 295.186 88.7373 294.153 88.7373C293.146 88.7373 292.406 89.1224 291.932 89.8926C291.458 90.6543 291.208 91.8477 291.183 93.4727V97.6621C291.183 99.3887 291.424 100.675 291.906 101.521C292.389 102.368 293.146 102.791 294.179 102.791C295.169 102.791 295.901 102.402 296.375 101.623C296.849 100.836 297.099 99.6087 297.124 97.9414V93.7646ZM314.986 97.2178C314.986 99.8753 314.487 101.881 313.488 103.235C312.498 104.581 310.987 105.254 308.956 105.254C306.959 105.254 305.452 104.598 304.437 103.286C303.429 101.966 302.913 100.015 302.888 97.4336V94.2344C302.888 91.5768 303.383 89.5837 304.373 88.2549C305.372 86.9261 306.891 86.2617 308.931 86.2617C310.953 86.2617 312.46 86.9092 313.45 88.2041C314.449 89.499 314.961 91.4372 314.986 94.0186V97.2178ZM311.901 93.7646C311.901 92.0296 311.664 90.7601 311.19 89.9561C310.716 89.1436 309.963 88.7373 308.931 88.7373C307.924 88.7373 307.183 89.1224 306.709 89.8926C306.235 90.6543 305.985 91.8477 305.96 93.4727V97.6621C305.96 99.3887 306.201 100.675 306.684 101.521C307.166 102.368 307.924 102.791 308.956 102.791C309.946 102.791 310.678 102.402 311.152 101.623C311.626 100.836 311.876 99.6087 311.901 97.9414V93.7646ZM329.764 97.2178C329.764 99.8753 329.264 101.881 328.266 103.235C327.275 104.581 325.765 105.254 323.733 105.254C321.736 105.254 320.229 104.598 319.214 103.286C318.207 101.966 317.69 100.015 317.665 97.4336V94.2344C317.665 91.5768 318.16 89.5837 319.15 88.2549C320.149 86.9261 321.668 86.2617 323.708 86.2617C325.731 86.2617 327.237 86.9092 328.228 88.2041C329.226 89.499 329.738 91.4372 329.764 94.0186V97.2178ZM326.679 93.7646C326.679 92.0296 326.442 90.7601 325.968 89.9561C325.494 89.1436 324.741 88.7373 323.708 88.7373C322.701 88.7373 321.96 89.1224 321.486 89.8926C321.012 90.6543 320.763 91.8477 320.737 93.4727V97.6621C320.737 99.3887 320.979 100.675 321.461 101.521C321.943 102.368 322.701 102.791 323.733 102.791C324.724 102.791 325.456 102.402 325.93 101.623C326.404 100.836 326.653 99.6087 326.679 97.9414V93.7646Z" fill="#FE9013"/>
<path d="M398.078 93.2597C397.662 92.8701 397.247 92.5844 396.857 92.3766C396.468 92.1948 396.026 92.0909 395.532 92.0909C394.961 92.0909 394.545 92.2208 394.26 92.4545C393.974 92.6883 393.818 93.0779 393.818 93.5974C393.818 93.961 393.974 94.2987 394.286 94.5325C394.597 94.7922 394.961 95.026 395.429 95.2597C395.896 95.4935 396.39 95.7273 396.909 95.987C397.429 96.2468 397.922 96.5325 398.39 96.8961C398.857 97.2597 399.221 97.6753 399.532 98.1948C399.844 98.7143 400 99.3377 400 100.065C400 101.182 399.688 102.143 399.091 102.948C398.494 103.753 397.558 104.273 396.364 104.558V107H394.104V104.662C393.429 104.584 392.701 104.403 391.948 104.091C391.195 103.779 390.545 103.39 390 102.896L391.506 100.584C392.104 101.026 392.675 101.364 393.195 101.597C393.74 101.831 394.286 101.935 394.831 101.935C395.481 101.935 395.974 101.805 396.26 101.545C396.571 101.286 396.727 100.87 396.727 100.325C396.727 99.9091 396.571 99.5714 396.26 99.2857C395.948 99 395.584 98.7403 395.117 98.4805C394.649 98.2208 394.156 97.961 393.636 97.7013C393.117 97.4416 392.623 97.1299 392.156 96.7662C391.688 96.4026 391.325 95.987 391.013 95.4935C390.701 95 390.545 94.4286 390.545 93.7273C390.545 92.5844 390.857 91.6234 391.481 90.8701C392.104 90.1169 392.987 89.6234 394.078 89.4156V87H396.338V89.3636C397.091 89.4675 397.74 89.7013 398.312 90.039C398.883 90.3766 399.377 90.7922 399.844 91.2857L398.078 93.2597Z" fill="#333B41"/>
<path d="M404.209 95.834L405.212 86.5156H415.14V89.1816H407.776L407.269 93.5996C408.123 93.1087 409.088 92.8633 410.163 92.8633C411.924 92.8633 413.29 93.4261 414.264 94.5518C415.245 95.6774 415.736 97.1924 415.736 99.0967C415.736 100.976 415.195 102.474 414.111 103.591C413.028 104.7 411.543 105.254 409.655 105.254C407.963 105.254 406.558 104.776 405.44 103.819C404.332 102.854 403.731 101.585 403.638 100.011H406.621C406.74 100.908 407.061 101.598 407.586 102.08C408.111 102.554 408.796 102.791 409.643 102.791C410.59 102.791 411.327 102.452 411.852 101.775C412.385 101.098 412.651 100.176 412.651 99.0078C412.651 97.8822 412.359 96.9935 411.775 96.3418C411.191 95.6816 410.387 95.3516 409.363 95.3516C408.805 95.3516 408.331 95.4277 407.941 95.5801C407.552 95.724 407.129 96.0117 406.672 96.4434L404.209 95.834ZM430.209 97.2178C430.209 99.8753 429.71 101.881 428.711 103.235C427.721 104.581 426.21 105.254 424.179 105.254C422.181 105.254 420.675 104.598 419.659 103.286C418.652 101.966 418.136 100.015 418.11 97.4336V94.2344C418.11 91.5768 418.605 89.5837 419.596 88.2549C420.594 86.9261 422.114 86.2617 424.153 86.2617C426.176 86.2617 427.683 86.9092 428.673 88.2041C429.672 89.499 430.184 91.4372 430.209 94.0186V97.2178ZM427.124 93.7646C427.124 92.0296 426.887 90.7601 426.413 89.9561C425.939 89.1436 425.186 88.7373 424.153 88.7373C423.146 88.7373 422.406 89.1224 421.932 89.8926C421.458 90.6543 421.208 91.8477 421.183 93.4727V97.6621C421.183 99.3887 421.424 100.675 421.906 101.521C422.389 102.368 423.146 102.791 424.179 102.791C425.169 102.791 425.901 102.402 426.375 101.623C426.849 100.836 427.099 99.6087 427.124 97.9414V93.7646ZM444.986 97.2178C444.986 99.8753 444.487 101.881 443.488 103.235C442.498 104.581 440.987 105.254 438.956 105.254C436.959 105.254 435.452 104.598 434.437 103.286C433.429 101.966 432.913 100.015 432.888 97.4336V94.2344C432.888 91.5768 433.383 89.5837 434.373 88.2549C435.372 86.9261 436.891 86.2617 438.931 86.2617C440.953 86.2617 442.46 86.9092 443.45 88.2041C444.449 89.499 444.961 91.4372 444.986 94.0186V97.2178ZM441.901 93.7646C441.901 92.0296 441.664 90.7601 441.19 89.9561C440.716 89.1436 439.963 88.7373 438.931 88.7373C437.924 88.7373 437.183 89.1224 436.709 89.8926C436.235 90.6543 435.985 91.8477 435.96 93.4727V97.6621C435.96 99.3887 436.201 100.675 436.684 101.521C437.166 102.368 437.924 102.791 438.956 102.791C439.946 102.791 440.678 102.402 441.152 101.623C441.626 100.836 441.876 99.6087 441.901 97.9414V93.7646Z" fill="#333B41"/>
<path d="M528.078 93.2597C527.662 92.8701 527.247 92.5844 526.857 92.3766C526.468 92.1948 526.026 92.0909 525.532 92.0909C524.961 92.0909 524.545 92.2208 524.26 92.4545C523.974 92.6883 523.818 93.0779 523.818 93.5974C523.818 93.961 523.974 94.2987 524.286 94.5325C524.597 94.7922 524.961 95.026 525.429 95.2597C525.896 95.4935 526.39 95.7273 526.909 95.987C527.429 96.2468 527.922 96.5325 528.39 96.8961C528.857 97.2597 529.221 97.6753 529.532 98.1948C529.844 98.7143 530 99.3377 530 100.065C530 101.182 529.688 102.143 529.091 102.948C528.494 103.753 527.558 104.273 526.364 104.558V107H524.104V104.662C523.429 104.584 522.701 104.403 521.948 104.091C521.195 103.779 520.545 103.39 520 102.896L521.506 100.584C522.104 101.026 522.675 101.364 523.195 101.597C523.74 101.831 524.286 101.935 524.831 101.935C525.481 101.935 525.974 101.805 526.26 101.545C526.571 101.286 526.727 100.87 526.727 100.325C526.727 99.9091 526.571 99.5714 526.26 99.2857C525.948 99 525.584 98.7403 525.117 98.4805C524.649 98.2208 524.156 97.961 523.636 97.7013C523.117 97.4416 522.623 97.1299 522.156 96.7662C521.688 96.4026 521.325 95.987 521.013 95.4935C520.701 95 520.545 94.4286 520.545 93.7273C520.545 92.5844 520.857 91.6234 521.481 90.8701C522.104 90.1169 522.987 89.6234 524.078 89.4156V87H526.338V89.3636C527.091 89.4675 527.74 89.7013 528.312 90.039C528.883 90.3766 529.377 90.7922 529.844 91.2857L528.078 93.2597Z" fill="#333B41"/>
<path d="M545.812 105H533.384V102.88L539.541 96.1641C540.43 95.1738 541.06 94.3486 541.433 93.6885C541.813 93.0199 542.004 92.3512 542.004 91.6826C542.004 90.8024 541.754 90.0915 541.255 89.5498C540.764 89.0081 540.1 88.7373 539.262 88.7373C538.263 88.7373 537.489 89.042 536.938 89.6514C536.388 90.2607 536.113 91.0944 536.113 92.1523H533.028C533.028 91.0267 533.282 90.0153 533.79 89.1182C534.306 88.2126 535.038 87.5101 535.986 87.0107C536.943 86.5114 538.043 86.2617 539.287 86.2617C541.081 86.2617 542.495 86.7145 543.527 87.6201C544.568 88.5173 545.089 89.7614 545.089 91.3525C545.089 92.2751 544.826 93.2441 544.302 94.2598C543.785 95.2669 542.935 96.4137 541.75 97.7002L537.23 102.537H545.812V105ZM548.986 95.834L549.989 86.5156H559.917V89.1816H552.554L552.046 93.5996C552.901 93.1087 553.866 92.8633 554.94 92.8633C556.701 92.8633 558.068 93.4261 559.041 94.5518C560.023 95.6774 560.514 97.1924 560.514 99.0967C560.514 100.976 559.972 102.474 558.889 103.591C557.805 104.7 556.32 105.254 554.433 105.254C552.74 105.254 551.335 104.776 550.218 103.819C549.109 102.854 548.508 101.585 548.415 100.011H551.398C551.517 100.908 551.839 101.598 552.363 102.08C552.888 102.554 553.574 102.791 554.42 102.791C555.368 102.791 556.104 102.452 556.629 101.775C557.162 101.098 557.429 100.176 557.429 99.0078C557.429 97.8822 557.137 96.9935 556.553 96.3418C555.969 95.6816 555.165 95.3516 554.141 95.3516C553.582 95.3516 553.108 95.4277 552.719 95.5801C552.329 95.724 551.906 96.0117 551.449 96.4434L548.986 95.834ZM574.986 97.2178C574.986 99.8753 574.487 101.881 573.488 103.235C572.498 104.581 570.987 105.254 568.956 105.254C566.959 105.254 565.452 104.598 564.437 103.286C563.429 101.966 562.913 100.015 562.888 97.4336V94.2344C562.888 91.5768 563.383 89.5837 564.373 88.2549C565.372 86.9261 566.891 86.2617 568.931 86.2617C570.953 86.2617 572.46 86.9092 573.45 88.2041C574.449 89.499 574.961 91.4372 574.986 94.0186V97.2178ZM571.901 93.7646C571.901 92.0296 571.664 90.7601 571.19 89.9561C570.716 89.1436 569.963 88.7373 568.931 88.7373C567.924 88.7373 567.183 89.1224 566.709 89.8926C566.235 90.6543 565.985 91.8477 565.96 93.4727V97.6621C565.96 99.3887 566.201 100.675 566.684 101.521C567.166 102.368 567.924 102.791 568.956 102.791C569.946 102.791 570.678 102.402 571.152 101.623C571.626 100.836 571.876 99.6087 571.901 97.9414V93.7646Z" fill="#333B41"/>
<path d="M658.078 93.2597C657.662 92.8701 657.247 92.5844 656.857 92.3766C656.468 92.1948 656.026 92.0909 655.532 92.0909C654.961 92.0909 654.545 92.2208 654.26 92.4545C653.974 92.6883 653.818 93.0779 653.818 93.5974C653.818 93.961 653.974 94.2987 654.286 94.5325C654.597 94.7922 654.961 95.026 655.429 95.2597C655.896 95.4935 656.39 95.7273 656.909 95.987C657.429 96.2468 657.922 96.5325 658.39 96.8961C658.857 97.2597 659.221 97.6753 659.532 98.1948C659.844 98.7143 660 99.3377 660 100.065C660 101.182 659.688 102.143 659.091 102.948C658.494 103.753 657.558 104.273 656.364 104.558V107H654.104V104.662C653.429 104.584 652.701 104.403 651.948 104.091C651.195 103.779 650.545 103.39 650 102.896L651.506 100.584C652.104 101.026 652.675 101.364 653.195 101.597C653.74 101.831 654.286 101.935 654.831 101.935C655.481 101.935 655.974 101.805 656.26 101.545C656.571 101.286 656.727 100.87 656.727 100.325C656.727 99.9091 656.571 99.5714 656.26 99.2857C655.948 99 655.584 98.7403 655.117 98.4805C654.649 98.2208 654.156 97.961 653.636 97.7013C653.117 97.4416 652.623 97.1299 652.156 96.7662C651.688 96.4026 651.325 95.987 651.013 95.4935C650.701 95 650.545 94.4286 650.545 93.7273C650.545 92.5844 650.857 91.6234 651.481 90.8701C652.104 90.1169 652.987 89.6234 654.078 89.4156V87H656.338V89.3636C657.091 89.4675 657.74 89.7013 658.312 90.039C658.883 90.3766 659.377 90.7922 659.844 91.2857L658.078 93.2597Z" fill="#333B41"/>
<path d="M671.737 105H668.665V90.1592L664.133 91.708V89.1055L671.344 86.4521H671.737V105ZM690.209 97.2178C690.209 99.8753 689.71 101.881 688.711 103.235C687.721 104.581 686.21 105.254 684.179 105.254C682.181 105.254 680.675 104.598 679.659 103.286C678.652 101.966 678.136 100.015 678.11 97.4336V94.2344C678.11 91.5768 678.605 89.5837 679.596 88.2549C680.594 86.9261 682.114 86.2617 684.153 86.2617C686.176 86.2617 687.683 86.9092 688.673 88.2041C689.672 89.499 690.184 91.4372 690.209 94.0186V97.2178ZM687.124 93.7646C687.124 92.0296 686.887 90.7601 686.413 89.9561C685.939 89.1436 685.186 88.7373 684.153 88.7373C683.146 88.7373 682.406 89.1224 681.932 89.8926C681.458 90.6543 681.208 91.8477 681.183 93.4727V97.6621C681.183 99.3887 681.424 100.675 681.906 101.521C682.389 102.368 683.146 102.791 684.179 102.791C685.169 102.791 685.901 102.402 686.375 101.623C686.849 100.836 687.099 99.6087 687.124 97.9414V93.7646ZM704.986 97.2178C704.986 99.8753 704.487 101.881 703.488 103.235C702.498 104.581 700.987 105.254 698.956 105.254C696.959 105.254 695.452 104.598 694.437 103.286C693.429 101.966 692.913 100.015 692.888 97.4336V94.2344C692.888 91.5768 693.383 89.5837 694.373 88.2549C695.372 86.9261 696.891 86.2617 698.931 86.2617C700.953 86.2617 702.46 86.9092 703.45 88.2041C704.449 89.499 704.961 91.4372 704.986 94.0186V97.2178ZM701.901 93.7646C701.901 92.0296 701.664 90.7601 701.19 89.9561C700.716 89.1436 699.963 88.7373 698.931 88.7373C697.924 88.7373 697.183 89.1224 696.709 89.8926C696.235 90.6543 695.985 91.8477 695.96 93.4727V97.6621C695.96 99.3887 696.201 100.675 696.684 101.521C697.166 102.368 697.924 102.791 698.956 102.791C699.946 102.791 700.678 102.402 701.152 101.623C701.626 100.836 701.876 99.6087 701.901 97.9414V93.7646Z" fill="#333B41"/>
<path d="M788.078 93.2597C787.662 92.8701 787.247 92.5844 786.857 92.3766C786.468 92.1948 786.026 92.0909 785.532 92.0909C784.961 92.0909 784.545 92.2208 784.26 92.4545C783.974 92.6883 783.818 93.0779 783.818 93.5974C783.818 93.961 783.974 94.2987 784.286 94.5325C784.597 94.7922 784.961 95.026 785.429 95.2597C785.896 95.4935 786.39 95.7273 786.909 95.987C787.429 96.2468 787.922 96.5325 788.39 96.8961C788.857 97.2597 789.221 97.6753 789.532 98.1948C789.844 98.7143 790 99.3377 790 100.065C790 101.182 789.688 102.143 789.091 102.948C788.494 103.753 787.558 104.273 786.364 104.558V107H784.104V104.662C783.429 104.584 782.701 104.403 781.948 104.091C781.195 103.779 780.545 103.39 780 102.896L781.506 100.584C782.104 101.026 782.675 101.364 783.195 101.597C783.74 101.831 784.286 101.935 784.831 101.935C785.481 101.935 785.974 101.805 786.26 101.545C786.571 101.286 786.727 100.87 786.727 100.325C786.727 99.9091 786.571 99.5714 786.26 99.2857C785.948 99 785.584 98.7403 785.117 98.4805C784.649 98.2208 784.156 97.961 783.636 97.7013C783.117 97.4416 782.623 97.1299 782.156 96.7662C781.688 96.4026 781.325 95.987 781.013 95.4935C780.701 95 780.545 94.4286 780.545 93.7273C780.545 92.5844 780.857 91.6234 781.481 90.8701C782.104 90.1169 782.987 89.6234 784.078 89.4156V87H786.338V89.3636C787.091 89.4675 787.74 89.7013 788.312 90.039C788.883 90.3766 789.377 90.7922 789.844 91.2857L788.078 93.2597Z" fill="#333B41"/>
<path d="M794.209 95.834L795.212 86.5156H805.14V89.1816H797.776L797.269 93.5996C798.123 93.1087 799.088 92.8633 800.163 92.8633C801.924 92.8633 803.29 93.4261 804.264 94.5518C805.245 95.6774 805.736 97.1924 805.736 99.0967C805.736 100.976 805.195 102.474 804.111 103.591C803.028 104.7 801.543 105.254 799.655 105.254C797.963 105.254 796.558 104.776 795.44 103.819C794.332 102.854 793.731 101.585 793.638 100.011H796.621C796.74 100.908 797.061 101.598 797.586 102.08C798.111 102.554 798.796 102.791 799.643 102.791C800.59 102.791 801.327 102.452 801.852 101.775C802.385 101.098 802.651 100.176 802.651 99.0078C802.651 97.8822 802.359 96.9935 801.775 96.3418C801.191 95.6816 800.387 95.3516 799.363 95.3516C798.805 95.3516 798.331 95.4277 797.941 95.5801C797.552 95.724 797.129 96.0117 796.672 96.4434L794.209 95.834ZM820.209 97.2178C820.209 99.8753 819.71 101.881 818.711 103.235C817.721 104.581 816.21 105.254 814.179 105.254C812.181 105.254 810.675 104.598 809.659 103.286C808.652 101.966 808.136 100.015 808.11 97.4336V94.2344C808.11 91.5768 808.605 89.5837 809.596 88.2549C810.594 86.9261 812.114 86.2617 814.153 86.2617C816.176 86.2617 817.683 86.9092 818.673 88.2041C819.672 89.499 820.184 91.4372 820.209 94.0186V97.2178ZM817.124 93.7646C817.124 92.0296 816.887 90.7601 816.413 89.9561C815.939 89.1436 815.186 88.7373 814.153 88.7373C813.146 88.7373 812.406 89.1224 811.932 89.8926C811.458 90.6543 811.208 91.8477 811.183 93.4727V97.6621C811.183 99.3887 811.424 100.675 811.906 101.521C812.389 102.368 813.146 102.791 814.179 102.791C815.169 102.791 815.901 102.402 816.375 101.623C816.849 100.836 817.099 99.6087 817.124 97.9414V93.7646Z" fill="#333B41"/>
<path d="M918.078 93.2597C917.662 92.8701 917.247 92.5844 916.857 92.3766C916.468 92.1948 916.026 92.0909 915.532 92.0909C914.961 92.0909 914.545 92.2208 914.26 92.4545C913.974 92.6883 913.818 93.0779 913.818 93.5974C913.818 93.961 913.974 94.2987 914.286 94.5325C914.597 94.7922 914.961 95.026 915.429 95.2597C915.896 95.4935 916.39 95.7273 916.909 95.987C917.429 96.2468 917.922 96.5325 918.39 96.8961C918.857 97.2597 919.221 97.6753 919.532 98.1948C919.844 98.7143 920 99.3377 920 100.065C920 101.182 919.688 102.143 919.091 102.948C918.494 103.753 917.558 104.273 916.364 104.558V107H914.104V104.662C913.429 104.584 912.701 104.403 911.948 104.091C911.195 103.779 910.545 103.39 910 102.896L911.506 100.584C912.104 101.026 912.675 101.364 913.195 101.597C913.74 101.831 914.286 101.935 914.831 101.935C915.481 101.935 915.974 101.805 916.26 101.545C916.571 101.286 916.727 100.87 916.727 100.325C916.727 99.9091 916.571 99.5714 916.26 99.2857C915.948 99 915.584 98.7403 915.117 98.4805C914.649 98.2208 914.156 97.961 913.636 97.7013C913.117 97.4416 912.623 97.1299 912.156 96.7662C911.688 96.4026 911.325 95.987 911.013 95.4935C910.701 95 910.545 94.4286 910.545 93.7273C910.545 92.5844 910.857 91.6234 911.481 90.8701C912.104 90.1169 912.987 89.6234 914.078 89.4156V87H916.338V89.3636C917.091 89.4675 917.74 89.7013 918.312 90.039C918.883 90.3766 919.377 90.7922 919.844 91.2857L918.078 93.2597Z" fill="#333B41"/>
<path d="M935.812 105H923.384V102.88L929.541 96.1641C930.43 95.1738 931.06 94.3486 931.433 93.6885C931.813 93.0199 932.004 92.3512 932.004 91.6826C932.004 90.8024 931.754 90.0915 931.255 89.5498C930.764 89.0081 930.1 88.7373 929.262 88.7373C928.263 88.7373 927.489 89.042 926.938 89.6514C926.388 90.2607 926.113 91.0944 926.113 92.1523H923.028C923.028 91.0267 923.282 90.0153 923.79 89.1182C924.306 88.2126 925.038 87.5101 925.986 87.0107C926.943 86.5114 928.043 86.2617 929.287 86.2617C931.081 86.2617 932.495 86.7145 933.527 87.6201C934.568 88.5173 935.089 89.7614 935.089 91.3525C935.089 92.2751 934.826 93.2441 934.302 94.2598C933.785 95.2669 932.935 96.4137 931.75 97.7002L927.23 102.537H935.812V105ZM938.986 95.834L939.989 86.5156H949.917V89.1816H942.554L942.046 93.5996C942.901 93.1087 943.866 92.8633 944.94 92.8633C946.701 92.8633 948.068 93.4261 949.041 94.5518C950.023 95.6774 950.514 97.1924 950.514 99.0967C950.514 100.976 949.972 102.474 948.889 103.591C947.805 104.7 946.32 105.254 944.433 105.254C942.74 105.254 941.335 104.776 940.218 103.819C939.109 102.854 938.508 101.585 938.415 100.011H941.398C941.517 100.908 941.839 101.598 942.363 102.08C942.888 102.554 943.574 102.791 944.42 102.791C945.368 102.791 946.104 102.452 946.629 101.775C947.162 101.098 947.429 100.176 947.429 99.0078C947.429 97.8822 947.137 96.9935 946.553 96.3418C945.969 95.6816 945.165 95.3516 944.141 95.3516C943.582 95.3516 943.108 95.4277 942.719 95.5801C942.329 95.724 941.906 96.0117 941.449 96.4434L938.986 95.834Z" fill="#333B41"/>
<path d="M138.078 93.2597C137.662 92.8701 137.247 92.5844 136.857 92.3766C136.468 92.1948 136.026 92.0909 135.532 92.0909C134.961 92.0909 134.545 92.2208 134.26 92.4545C133.974 92.6883 133.818 93.0779 133.818 93.5974C133.818 93.961 133.974 94.2987 134.286 94.5325C134.597 94.7922 134.961 95.026 135.429 95.2597C135.896 95.4935 136.39 95.7273 136.909 95.987C137.429 96.2468 137.922 96.5325 138.39 96.8961C138.857 97.2597 139.221 97.6753 139.532 98.1948C139.844 98.7143 140 99.3377 140 100.065C140 101.182 139.688 102.143 139.091 102.948C138.494 103.753 137.558 104.273 136.364 104.558V107H134.104V104.662C133.429 104.584 132.701 104.403 131.948 104.091C131.195 103.779 130.545 103.39 130 102.896L131.506 100.584C132.104 101.026 132.675 101.364 133.195 101.597C133.74 101.831 134.286 101.935 134.831 101.935C135.481 101.935 135.974 101.805 136.26 101.545C136.571 101.286 136.727 100.87 136.727 100.325C136.727 99.9091 136.571 99.5714 136.26 99.2857C135.948 99 135.584 98.7403 135.117 98.4805C134.649 98.2208 134.156 97.961 133.636 97.7013C133.117 97.4416 132.623 97.1299 132.156 96.7662C131.688 96.4026 131.325 95.987 131.013 95.4935C130.701 95 130.545 94.4286 130.545 93.7273C130.545 92.5844 130.857 91.6234 131.481 90.8701C132.104 90.1169 132.987 89.6234 134.078 89.4156V87H136.338V89.3636C137.091 89.4675 137.74 89.7013 138.312 90.039C138.883 90.3766 139.377 90.7922 139.844 91.2857L138.078 93.2597Z" fill="#333B41"/>
<path d="M155.812 105H143.384V102.88L149.541 96.1641C150.43 95.1738 151.06 94.3486 151.433 93.6885C151.813 93.0199 152.004 92.3512 152.004 91.6826C152.004 90.8024 151.754 90.0915 151.255 89.5498C150.764 89.0081 150.1 88.7373 149.262 88.7373C148.263 88.7373 147.489 89.042 146.938 89.6514C146.388 90.2607 146.113 91.0944 146.113 92.1523H143.028C143.028 91.0267 143.282 90.0153 143.79 89.1182C144.306 88.2126 145.038 87.5101 145.986 87.0107C146.943 86.5114 148.043 86.2617 149.287 86.2617C151.081 86.2617 152.495 86.7145 153.527 87.6201C154.568 88.5173 155.089 89.7614 155.089 91.3525C155.089 92.2751 154.826 93.2441 154.302 94.2598C153.785 95.2669 152.935 96.4137 151.75 97.7002L147.23 102.537H155.812V105ZM170.209 97.2178C170.209 99.8753 169.71 101.881 168.711 103.235C167.721 104.581 166.21 105.254 164.179 105.254C162.181 105.254 160.675 104.598 159.659 103.286C158.652 101.966 158.136 100.015 158.11 97.4336V94.2344C158.11 91.5768 158.605 89.5837 159.596 88.2549C160.594 86.9261 162.114 86.2617 164.153 86.2617C166.176 86.2617 167.683 86.9092 168.673 88.2041C169.672 89.499 170.184 91.4372 170.209 94.0186V97.2178ZM167.124 93.7646C167.124 92.0296 166.887 90.7601 166.413 89.9561C165.939 89.1436 165.186 88.7373 164.153 88.7373C163.146 88.7373 162.406 89.1224 161.932 89.8926C161.458 90.6543 161.208 91.8477 161.183 93.4727V97.6621C161.183 99.3887 161.424 100.675 161.906 101.521C162.389 102.368 163.146 102.791 164.179 102.791C165.169 102.791 165.901 102.402 166.375 101.623C166.849 100.836 167.099 99.6087 167.124 97.9414V93.7646ZM184.986 97.2178C184.986 99.8753 184.487 101.881 183.488 103.235C182.498 104.581 180.987 105.254 178.956 105.254C176.959 105.254 175.452 104.598 174.437 103.286C173.429 101.966 172.913 100.015 172.888 97.4336V94.2344C172.888 91.5768 173.383 89.5837 174.373 88.2549C175.372 86.9261 176.891 86.2617 178.931 86.2617C180.953 86.2617 182.46 86.9092 183.45 88.2041C184.449 89.499 184.961 91.4372 184.986 94.0186V97.2178ZM181.901 93.7646C181.901 92.0296 181.664 90.7601 181.19 89.9561C180.716 89.1436 179.963 88.7373 178.931 88.7373C177.924 88.7373 177.183 89.1224 176.709 89.8926C176.235 90.6543 175.985 91.8477 175.96 93.4727V97.6621C175.96 99.3887 176.201 100.675 176.684 101.521C177.166 102.368 177.924 102.791 178.956 102.791C179.946 102.791 180.678 102.402 181.152 101.623C181.626 100.836 181.876 99.6087 181.901 97.9414V93.7646ZM199.764 97.2178C199.764 99.8753 199.264 101.881 198.266 103.235C197.275 104.581 195.765 105.254 193.733 105.254C191.736 105.254 190.229 104.598 189.214 103.286C188.207 101.966 187.69 100.015 187.665 97.4336V94.2344C187.665 91.5768 188.16 89.5837 189.15 88.2549C190.149 86.9261 191.668 86.2617 193.708 86.2617C195.731 86.2617 197.237 86.9092 198.228 88.2041C199.226 89.499 199.738 91.4372 199.764 94.0186V97.2178ZM196.679 93.7646C196.679 92.0296 196.442 90.7601 195.968 89.9561C195.494 89.1436 194.741 88.7373 193.708 88.7373C192.701 88.7373 191.96 89.1224 191.486 89.8926C191.012 90.6543 190.763 91.8477 190.737 93.4727V97.6621C190.737 99.3887 190.979 100.675 191.461 101.521C191.943 102.368 192.701 102.791 193.733 102.791C194.724 102.791 195.456 102.402 195.93 101.623C196.404 100.836 196.653 99.6087 196.679 97.9414V93.7646Z" fill="#333B41"/>
<path d="M8.07792 93.2597C7.66234 92.8701 7.24675 92.5844 6.85714 92.3766C6.46753 92.1948 6.02597 92.0909 5.53247 92.0909C4.96104 92.0909 4.54545 92.2208 4.25974 92.4545C3.97403 92.6883 3.81818 93.0779 3.81818 93.5974C3.81818 93.961 3.97403 94.2987 4.28571 94.5325C4.5974 94.7922 4.96104 95.026 5.42857 95.2597C5.8961 95.4935 6.38961 95.7273 6.90909 95.987C7.42857 96.2468 7.92208 96.5325 8.38961 96.8961C8.85714 97.2597 9.22078 97.6753 9.53247 98.1948C9.84416 98.7143 10 99.3377 10 100.065C10 101.182 9.68831 102.143 9.09091 102.948C8.49351 103.753 7.55844 104.273 6.36364 104.558V107H4.1039V104.662C3.42857 104.584 2.7013 104.403 1.94805 104.091C1.19481 103.779 0.545455 103.39 0 102.896L1.50649 100.584C2.1039 101.026 2.67532 101.364 3.19481 101.597C3.74026 101.831 4.28571 101.935 4.83117 101.935C5.48052 101.935 5.97403 101.805 6.25974 101.545C6.57143 101.286 6.72727 100.87 6.72727 100.325C6.72727 99.9091 6.57143 99.5714 6.25974 99.2857C5.94805 99 5.58442 98.7403 5.11688 98.4805C4.64935 98.2208 4.15584 97.961 3.63636 97.7013C3.11688 97.4416 2.62338 97.1299 2.15584 96.7662C1.68831 96.4026 1.32468 95.987 1.01299 95.4935C0.701299 95 0.545455 94.4286 0.545455 93.7273C0.545455 92.5844 0.857143 91.6234 1.48052 90.8701C2.1039 90.1169 2.98701 89.6234 4.07792 89.4156V87H6.33766V89.3636C7.09091 89.4675 7.74026 89.7013 8.31169 90.039C8.88312 90.3766 9.37662 90.7922 9.84416 91.2857L8.07792 93.2597Z" fill="#333B41"/>
<path d="M14.209 95.834L15.2119 86.5156H25.1396V89.1816H17.7764L17.2686 93.5996C18.1234 93.1087 19.0882 92.8633 20.1631 92.8633C21.9235 92.8633 23.2904 93.4261 24.2637 94.5518C25.2454 95.6774 25.7363 97.1924 25.7363 99.0967C25.7363 100.976 25.1947 102.474 24.1113 103.591C23.028 104.7 21.5426 105.254 19.6553 105.254C17.9626 105.254 16.5576 104.776 15.4404 103.819C14.3317 102.854 13.7308 101.585 13.6377 100.011H16.6211C16.7396 100.908 17.0612 101.598 17.5859 102.08C18.1107 102.554 18.7962 102.791 19.6426 102.791C20.5905 102.791 21.3268 102.452 21.8516 101.775C22.3848 101.098 22.6514 100.176 22.6514 99.0078C22.6514 97.8822 22.3594 96.9935 21.7754 96.3418C21.1914 95.6816 20.3874 95.3516 19.3633 95.3516C18.8047 95.3516 18.3307 95.4277 17.9414 95.5801C17.5521 95.724 17.1289 96.0117 16.6719 96.4434L14.209 95.834ZM40.209 97.2178C40.209 99.8753 39.7096 101.881 38.7109 103.235C37.7207 104.581 36.21 105.254 34.1787 105.254C32.1813 105.254 30.6748 104.598 29.6592 103.286C28.652 101.966 28.1357 100.015 28.1104 97.4336V94.2344C28.1104 91.5768 28.6055 89.5837 29.5957 88.2549C30.5944 86.9261 32.1136 86.2617 34.1533 86.2617C36.1761 86.2617 37.6826 86.9092 38.6729 88.2041C39.6715 89.499 40.1836 91.4372 40.209 94.0186V97.2178ZM37.124 93.7646C37.124 92.0296 36.887 90.7601 36.4131 89.9561C35.9391 89.1436 35.1859 88.7373 34.1533 88.7373C33.1462 88.7373 32.4056 89.1224 31.9316 89.8926C31.4577 90.6543 31.208 91.8477 31.1826 93.4727V97.6621C31.1826 99.3887 31.4238 100.675 31.9062 101.521C32.3887 102.368 33.1462 102.791 34.1787 102.791C35.1689 102.791 35.901 102.402 36.375 101.623C36.849 100.836 37.0986 99.6087 37.124 97.9414V93.7646ZM54.9863 97.2178C54.9863 99.8753 54.487 101.881 53.4883 103.235C52.498 104.581 50.9873 105.254 48.9561 105.254C46.9587 105.254 45.4521 104.598 44.4365 103.286C43.4294 101.966 42.9131 100.015 42.8877 97.4336V94.2344C42.8877 91.5768 43.3828 89.5837 44.373 88.2549C45.3717 86.9261 46.891 86.2617 48.9307 86.2617C50.9535 86.2617 52.46 86.9092 53.4502 88.2041C54.4489 89.499 54.9609 91.4372 54.9863 94.0186V97.2178ZM51.9014 93.7646C51.9014 92.0296 51.6644 90.7601 51.1904 89.9561C50.7165 89.1436 49.9632 88.7373 48.9307 88.7373C47.9235 88.7373 47.1829 89.1224 46.709 89.8926C46.235 90.6543 45.9854 91.8477 45.96 93.4727V97.6621C45.96 99.3887 46.2012 100.675 46.6836 101.521C47.166 102.368 47.9235 102.791 48.9561 102.791C49.9463 102.791 50.6784 102.402 51.1523 101.623C51.6263 100.836 51.876 99.6087 51.9014 97.9414V93.7646ZM69.7637 97.2178C69.7637 99.8753 69.2643 101.881 68.2656 103.235C67.2754 104.581 65.7646 105.254 63.7334 105.254C61.736 105.254 60.2295 104.598 59.2139 103.286C58.2067 101.966 57.6904 100.015 57.665 97.4336V94.2344C57.665 91.5768 58.1602 89.5837 59.1504 88.2549C60.1491 86.9261 61.6683 86.2617 63.708 86.2617C65.7308 86.2617 67.2373 86.9092 68.2275 88.2041C69.2262 89.499 69.7383 91.4372 69.7637 94.0186V97.2178ZM66.6787 93.7646C66.6787 92.0296 66.4417 90.7601 65.9678 89.9561C65.4938 89.1436 64.7406 88.7373 63.708 88.7373C62.7008 88.7373 61.9603 89.1224 61.4863 89.8926C61.0124 90.6543 60.7627 91.8477 60.7373 93.4727V97.6621C60.7373 99.3887 60.9785 100.675 61.4609 101.521C61.9434 102.368 62.7008 102.791 63.7334 102.791C64.7236 102.791 65.4557 102.402 65.9297 101.623C66.4036 100.836 66.6533 99.6087 66.6787 97.9414V93.7646Z" fill="#333B41"/>
<path d="M11.6016 13.0312H6.83594L5.76562 16H4.21875L8.5625 4.625H9.875L14.2266 16H12.6875L11.6016 13.0312ZM7.28906 11.7969H11.1562L9.21875 6.47656L7.28906 11.7969ZM16.8906 7.54688L16.9297 8.48438C17.5495 7.75521 18.3854 7.39062 19.4375 7.39062C20.6198 7.39062 21.4245 7.84375 21.8516 8.75C22.1328 8.34375 22.4974 8.01562 22.9453 7.76562C23.3984 7.51562 23.9323 7.39062 24.5469 7.39062C26.401 7.39062 27.3438 8.3724 27.375 10.3359V16H25.9297V10.4219C25.9297 9.81771 25.7917 9.36719 25.5156 9.07031C25.2396 8.76823 24.776 8.61719 24.125 8.61719C23.5885 8.61719 23.1432 8.77865 22.7891 9.10156C22.4349 9.41927 22.2292 9.84896 22.1719 10.3906V16H20.7188V10.4609C20.7188 9.23177 20.1172 8.61719 18.9141 8.61719C17.9661 8.61719 17.3177 9.02083 16.9688 9.82812V16H15.5234V7.54688H16.8906ZM29.1797 11.6953C29.1797 10.8672 29.3411 10.1224 29.6641 9.46094C29.9922 8.79948 30.4453 8.28906 31.0234 7.92969C31.6068 7.57031 32.2708 7.39062 33.0156 7.39062C34.1667 7.39062 35.0964 7.78906 35.8047 8.58594C36.5182 9.38281 36.875 10.4427 36.875 11.7656V11.8672C36.875 12.6901 36.7161 13.4297 36.3984 14.0859C36.0859 14.737 35.6354 15.2448 35.0469 15.6094C34.4635 15.974 33.7917 16.1562 33.0312 16.1562C31.8854 16.1562 30.9557 15.7578 30.2422 14.9609C29.5339 14.1641 29.1797 13.1094 29.1797 11.7969V11.6953ZM30.6328 11.8672C30.6328 12.8047 30.849 13.5573 31.2812 14.125C31.7188 14.6927 32.3021 14.9766 33.0312 14.9766C33.7656 14.9766 34.349 14.6901 34.7812 14.1172C35.2135 13.5391 35.4297 12.7318 35.4297 11.6953C35.4297 10.7682 35.2083 10.0182 34.7656 9.44531C34.3281 8.86719 33.7448 8.57812 33.0156 8.57812C32.3021 8.57812 31.7266 8.86198 31.2891 9.42969C30.8516 9.9974 30.6328 10.8099 30.6328 11.8672ZM43.9062 15.1641C43.3438 15.8255 42.5182 16.1562 41.4297 16.1562C40.5286 16.1562 39.8411 15.8958 39.3672 15.375C38.8984 14.849 38.6615 14.0729 38.6562 13.0469V7.54688H40.1016V13.0078C40.1016 14.2891 40.6224 14.9297 41.6641 14.9297C42.7682 14.9297 43.5026 14.5182 43.8672 13.6953V7.54688H45.3125V16H43.9375L43.9062 15.1641ZM48.8828 7.54688L48.9297 8.60938C49.5755 7.79688 50.4193 7.39062 51.4609 7.39062C53.2474 7.39062 54.1484 8.39844 54.1641 10.4141V16H52.7188V10.4062C52.7135 9.79688 52.5729 9.34635 52.2969 9.05469C52.026 8.76302 51.6016 8.61719 51.0234 8.61719C50.5547 8.61719 50.1432 8.74219 49.7891 8.99219C49.4349 9.24219 49.1589 9.57031 48.9609 9.97656V16H47.5156V7.54688H48.8828ZM58.3047 5.5V7.54688H59.8828V8.66406H58.3047V13.9062C58.3047 14.2448 58.375 14.5 58.5156 14.6719C58.6562 14.8385 58.8958 14.9219 59.2344 14.9219C59.401 14.9219 59.6302 14.8906 59.9219 14.8281V16C59.5417 16.1042 59.1719 16.1562 58.8125 16.1562C58.1667 16.1562 57.6797 15.9609 57.3516 15.5703C57.0234 15.1797 56.8594 14.625 56.8594 13.9062V8.66406H55.3203V7.54688H56.8594V5.5H58.3047Z" fill="black"/>
</svg>
